HIERARCHY
ROOT Bip001_Pelvis
{
  OFFSET 34.4345 95.6767 -26.8758
  CHANNELS 6 Xposition Yposition Zposition Zrotation Xrotation Yrotation
  JOINT Bip001_Spine
  {
    OFFSET 1.4188e-005 10.2191 -0.0116013
    CHANNELS 3 Zrotation Xrotation Yrotation
    JOINT Bip001_L_Thigh
    {
      OFFSET 11.0458 -10.2192 0.0116197
      CHANNELS 3 Zrotation Xrotation Yrotation
      JOINT Bip001_L_Calf
      {
        OFFSET -0.707118 -44.0221 0.360014
        CHANNELS 3 Zrotation Xrotation Yrotation
        JOINT Bip001_L_Foot
        {
          OFFSET -0.651902 -40.5938 -3.56146
          CHANNELS 3 Zrotation Xrotation Yrotation
          JOINT Bip001_L_Toe0
          {
            OFFSET 0.0530839 -10.2181 13.1504
            CHANNELS 3 Zrotation Xrotation Yrotation
            End Site
            {
              OFFSET -1.02532e-005 0 7.55606
            }
          }
        }
      }
    }
    JOINT Bip001_R_Thigh
    {
      OFFSET -11.0458 -10.2191 0.0115893
      CHANNELS 3 Zrotation Xrotation Yrotation
      JOINT Bip001_R_Calf
      {
        OFFSET 0.706994 -44.0221 0.35984
        CHANNELS 3 Zrotation Xrotation Yrotation
        JOINT Bip001_R_Foot
        {
          OFFSET 0.651786 -40.5938 -3.5613
          CHANNELS 3 Zrotation Xrotation Yrotation
          JOINT Bip001_R_Toe0
          {
            OFFSET -0.0531479 -10.2181 13.1504
            CHANNELS 3 Zrotation Xrotation Yrotation
            End Site
            {
              OFFSET -1.02894e-005 0 7.55606
            }
          }
        }
      }
    }
    JOINT Bip001_Spine1
    {
      OFFSET 1.87041e-005 14.5736 1.08638
      CHANNELS 3 Zrotation Xrotation Yrotation
      JOINT Bip001_Spine2
      {
        OFFSET 2.24614e-005 14.5058 -1.69078
        CHANNELS 3 Zrotation Xrotation Yrotation
        JOINT Bip001_Neck
        {
          OFFSET 2.20278e-005 15.3945 -0.489414
          CHANNELS 3 Zrotation Xrotation Yrotation
          JOINT Bip001_L_Clavicle
          {
            OFFSET 6.06036 -0.000579998 0.00836775
            CHANNELS 3 Zrotation Xrotation Yrotation
            JOINT Bip001_L_UpperArm
            {
              OFFSET 11.5509 -0.0600302 0.00193952
              CHANNELS 3 Zrotation Xrotation Yrotation
              JOINT Bip001_L_Forearm
              {
                OFFSET 25.9523 0.0806089 -2.15551
                CHANNELS 3 Zrotation Xrotation Yrotation
                JOINT Bip001_L_Hand
                {
                  OFFSET 32.2475 0.153767 1.63968
                  CHANNELS 3 Zrotation Xrotation Yrotation
                  JOINT Bip001_L_Finger0
                  {
                    OFFSET 6.04639 -2.20976 5.90322
                    CHANNELS 3 Zrotation Xrotation Yrotation
                    End Site
                    {
                      OFFSET 4.22375 -1.43895 0.606485
                    }
                  }
                  JOINT Bip001_L_Finger1
                  {
                    OFFSET 11.0826 -0.704819 -0.198153
                    CHANNELS 3 Zrotation Xrotation Yrotation
                    End Site
                    {
                      OFFSET 6.20027 -0.397518 -0.0787166
                    }
                  }
                }
              }
            }
          }
          JOINT Bip001_R_Clavicle
          {
            OFFSET -6.06037 -0.000563197 0.00835105
            CHANNELS 3 Zrotation Xrotation Yrotation
            JOINT Bip001_R_UpperArm
            {
              OFFSET -11.5509 -0.0599978 0.00190698
              CHANNELS 3 Zrotation Xrotation Yrotation
              JOINT Bip001_R_Forearm
              {
                OFFSET -25.9523 0.0806822 -2.15589
                CHANNELS 3 Zrotation Xrotation Yrotation
                JOINT Bip001_R_Hand
                {
                  OFFSET -32.2475 0.153859 1.63989
                  CHANNELS 3 Zrotation Xrotation Yrotation
                  JOINT Bip001_R_Finger0
                  {
                    OFFSET -6.04641 -2.20976 5.90317
                    CHANNELS 3 Zrotation Xrotation Yrotation
                    End Site
                    {
                      OFFSET -4.22376 -1.43895 0.60647
                    }
                  }
                  JOINT Bip001_R_Finger1
                  {
                    OFFSET -11.0826 -0.704794 -0.198182
                    CHANNELS 3 Zrotation Xrotation Yrotation
                    End Site
                    {
                      OFFSET -6.20028 -0.397504 -0.0787333
                    }
                  }
                }
              }
            }
          }
          JOINT Bip001_Head
          {
            OFFSET 1.09673e-005 11.2744 2.05948
            CHANNELS 3 Zrotation Xrotation Yrotation
            End Site
            {
              OFFSET 2.89576e-005 20.8808 -2.77728e-005
            }
          }
        }
      }
    }
  }
}
MOTION
Frames:	8
Frame Time:	0.04
33.7919 95.5776 -30.4688 -2.20518 4.37579 22.4844 -0.846276 1.22318 -0.538032 6.87211 -14.2754 1.35994 -0.872283 13.5037 -13.2795 2.54112 -4.68932 -0.00858871 1.62419 -4.28893 -1.41885 -1.31128 -2.76501 -6.96523 1.18473 7.4748 -1.83612 -10.1246 -4.64438 -15.4241 3.03915 -9.95258 3.0706 -1.68162 2.45344 -1.05828 -1.68162 2.45339 -1.05829 4.79417 -6.58749 -5.79958 -27.9191 5.36888 3.98039 -58.1017 46.5798 15.5182 15.9558 -18.9081 -39.3199 8.53125 1.53833 3.1361 7.95139e-016 -3.18055e-015 -3.18055e-015 2.38542e-015 -3.18056e-015 -3.18055e-015 3.70488 13.0363 35.9485 65.7493 -58.1326 53.8266 -71.563 1.64683 82.669 -28.6899 -9.35091 -2.15626 -0 -3.18055e-015 -0 3.18055e-015 -3.18056e-015 -3.97569e-016 -4.32133 -2.22195 -3.72332 
33.876 95.5897 -30.6484 -2.12511 5.19975 24.7614 -1.00657 1.18509 -0.74777 5.92655 -15.048 1.64138 -0.128883 12.537 -15.4391 2.40283 -3.8643 -0.0261022 1.79671 -4.24818 -1.74782 -1.85911 -3.52837 -7.53619 1.60252 8.23715 -1.92303 -10.3782 -4.7006 -16.5676 3.04839 -9.93361 3.00432 -1.99824 2.38304 -1.47513 -1.99824 2.38305 -1.47511 8.49963 -4.86918 -7.69032 -29.4932 2.79619 4.03856 -60.1662 45.6783 17.1692 16.6069 -18.0884 -39.2099 7.66456 1.62981 4.0701 -7.95139e-016 0 -3.18055e-015 1.59028e-015 0 -0 5.13442 12.4289 33.9235 57.4108 -58.1508 52.3376 -69.4262 -1.09995 83.5767 -25.8504 -8.53634 -4.44841 1.59028e-015 -1.59028e-015 -0 3.18055e-015 -1.59028e-015 -0 -6.97175 -3.42619 -3.97408 
34.2885 95.6319 -30.5052 -0.945299 3.70023 23.9518 -0.954625 1.31895 -0.79411 5.41517 -12.7997 5.70628 0.502542 12.2201 -18.1179 1.41703 -4.64063 0.00353728 1.86555 -3.32253 -2.03473 -2.73487 -1.86043 -9.4301 1.41694 8.55114 -1.46914 -10.0045 -5.23114 -14.6122 3.05219 -9.98213 3.06899 -1.89666 2.65081 -1.57504 -1.89428 2.65076 -1.5729 12.6644 -3.48154 -9.04318 -32.3605 0.95121 2.06146 -64.8675 43.7538 21.4735 15.9122 -17.6941 -37.6263 7.87516 2.13471 4.39611 -8.82781e-032 -3.18055e-015 -1.59028e-015 -3.18055e-015 -3.18056e-015 -1.59028e-015 0.726527 8.9445 29.6293 54.6742 -50.8572 51.5093 -66.5264 0.613534 83.2104 -29.4744 -8.21831 -2.66783 7.95139e-016 9.54166e-015 -3.97569e-016 7.95139e-016 9.54167e-015 -3.97569e-016 -11.4527 -3.10023 -3.11867 
34.6097 95.7098 -30.4706 0.0541324 1.66336 18.7788 -0.505828 1.39548 -0.834861 5.28663 -9.33406 7.49131 0.151377 11.9497 -14.6331 0.452487 -5.84551 0.027107 1.51725 -2.59205 -1.76285 -3.63029 -0.696383 -7.90938 0.816216 8.84271 -1.02113 -9.27302 -5.64047 -11.8318 2.99039 -9.85465 3.09398 -0.9928 2.79791 -1.67512 -0.993207 2.79799 -1.66091 11.2901 -2.47479 -7.09808 -32.5568 0.872157 1.4494 -67.6671 45.1656 23.6195 15.5009 -16.7347 -33.3672 5.28535 2.33837 4.29276 0 0 -4.77083e-015 -1.59028e-015 0 -3.18055e-015 0.593793 7.56013 28.0599 48.3935 -43.5869 49.7041 -60.4311 2.83105 79.4975 -29.9899 -7.46869 0.949206 -7.95139e-016 3.18055e-015 -7.95139e-016 7.95139e-016 0 -3.97569e-016 -12.2389 -2.77951 -1.39689 
34.7992 95.6598 -30.7595 0.353863 0.302346 12.3553 0.00261581 1.61558 -0.838233 4.98832 -7.19895 7.60965 -0.297774 12.2567 -8.84919 1.07644 -6.3504 0.0303487 1.56053 -3.11637 -1.57231 -4.53027 -1.46623 -6.15106 0.248942 10.047 -0.114435 -8.61411 -6.4531 -8.50958 3.01911 -9.99957 3.18562 0.0295183 3.23027 -1.66356 0.0296845 3.23045 -1.67018 7.16177 -3.50514 -3.72527 -30.2068 2.96703 2.33557 -67.0966 47.09 21.2346 16.2988 -11.7968 -27.8209 0.439301 1.71168 2.47903 3.97569e-015 3.18055e-015 -7.95139e-016 2.38542e-015 6.36111e-015 -0 1.51473 8.36468 28.1577 45.9147 -37.1938 51.0491 -56.6361 0.73232 73.1045 -21.4775 -4.4497 3.96682 6.36111e-015 6.36111e-015 -0 1.59028e-015 3.18056e-015 7.95139e-016 -10.9479 -2.79426 0.470896 
34.8174 95.5534 -31.2708 0.266908 -0.275218 6.58452 0.29706 1.65179 -0.340308 5.04261 -6.4028 7.24507 -0.837877 13.3901 -3.59796 0.170319 -8.01262 0.0343376 0.830039 -2.38516 -0.581397 -5.03147 -3.12548 -4.71021 -0.020119 11.6653 0.624735 -8.01851 -7.30377 -5.85358 3.00917 -10.0368 3.31366 0.60442 3.30204 -0.689687 0.604419 3.30209 -0.689687 7.30234 -3.55962 -2.6536 -32.0985 3.6426 1.03797 -63.9318 46.9024 18.0848 17.2684 -3.89272 -23.4335 -1.78308 1.47729 -0.0574798 -1.59028e-015 6.36111e-015 7.95139e-016 -7.95139e-016 3.18056e-015 7.95139e-016 1.83673 8.46691 26.998 46.6815 -36.0182 49.9958 -54.5721 1.08805 75.2184 -16.0839 -2.4859 5.00735 -6.36111e-015 0 7.95139e-016 -9.54166e-015 0 7.95139e-016 -11.695 -3.99114 1.58425 
34.7969 95.492 -31.605 -0.0141441 -1.02802 2.42892 0.403617 1.76715 0.16165 5.30455 -5.44103 5.94305 -1.51166 13.8915 0.654059 0.0663174 -8.7684 0.0355474 0.244001 -2.34298 0.265179 -4.9995 -3.81365 -3.853 -0.171727 12.3168 1.21762 -7.48543 -7.68243 -3.8819 2.9183 -9.85745 3.3387 0.802813 3.53539 0.311059 0.802811 3.53538 0.311057 8.79871 -3.32595 -2.542 -33.7275 4.08198 -1.32711 -61.0404 44.0583 15.5555 17.6531 2.05577 -21.9907 -0.950121 1.2387 -0.162728 -7.95139e-016 -9.54166e-015 -1.59028e-015 7.95139e-016 -6.36111e-015 -1.59028e-015 2.96339 8.61042 25.1885 43.1152 -34.9168 45.9382 -53.1065 1.36279 77.4843 -14.3334 -2.52925 5.2124 -6.36111e-015 0 -0 -6.36111e-015 -3.18056e-015 -0 -12.9642 -5.31322 2.21146 
34.9465 95.4597 -31.741 0.497133 -2.21483 -0.548736 0.24688 2.06257 0.282194 4.23486 -3.49385 8.01077 -0.644177 12.5312 0.602542 2.80786 -6.81176 0.0450078 1.37627 -4.68451 -0.35556 -5.67756 -4.1429 -3.90342 -0.391752 13.499 1.65159 -6.84733 -8.50751 -1.5976 2.83449 -9.66379 3.33663 0.466616 4.12629 0.5542 0.46966 4.12629 0.556016 9.02505 -3.40193 -1.76743 -32.5342 4.77904 -2.78987 -59.0504 41.5629 11.9647 16.2965 3.34293 -20.237 2.31463 1.85267 -0.331441 -4.41391e-032 -3.18055e-015 -7.95139e-016 -1.59028e-015 -6.36111e-015 -7.95139e-016 5.17883 9.15908 23.7606 36.6671 -32.3196 39.6623 -54.2605 2.01781 78.8394 -18.6407 -2.02489 4.78052 1.98626e-031 4.77083e-015 -2.38542e-015 1.76556e-031 3.18056e-015 -3.18055e-015 -12.5446 -6.39787 2.82764 
